<svg width="24" height="24" viewBox="0 0 24 24" fill="none" xmlns="http://www.w3.org/2000/svg">
<g id="Frame 13" clip-path="url(#clip0_43_7833)">
<g id="&#240;&#159;&#166;&#134; icon &#34;Global assets and recovery 02&#34;">
<path id="Vector" d="M8.05838 21.5346V21.7596V22.3228V22.5478H7.83338H1.95876C1.17144 22.5478 0.463521 22.1394 0.0701946 21.4571C-0.322907 20.7753 -0.32392 19.9584 0.0702843 19.2761C0.0702902 19.2761 0.0702965 19.2761 0.0703024 19.2761L2.77876 14.5869L1.66001 14.8868L1.44288 14.945L1.38448 14.7279L1.23839 14.185L1.17989 13.9675L1.39736 13.9092L3.97142 13.2186L4.18881 13.1603L4.24705 13.3777L4.93685 15.9525L4.99519 16.1703L4.77732 16.2282L4.2336 16.3727L4.0165 16.4304L3.95845 16.2134L3.65749 15.0884L0.946774 19.7814C0.735257 20.1486 0.735336 20.584 0.946623 20.9502L8.05838 21.5346ZM8.05838 21.5346H7.83338M8.05838 21.5346H7.83338M7.83338 21.5346H1.95876M7.83338 21.5346H1.95876M20.5461 13.3326L20.6581 13.5277L23.9295 19.2237C23.9296 19.2239 23.9296 19.224 23.9297 19.2241C24.3236 19.9061 24.3236 20.7223 23.9286 21.4037M20.5461 13.3326L22.0395 22.2697H16.9027L17.1278 22.4947M20.5461 13.3326L20.351 13.4447L19.8627 13.7251L19.6676 13.8372L19.7797 14.0323L23.0521 19.7288L23.0522 19.7291C23.2638 20.0963 23.2637 20.5309 23.0523 20.8972L23.0523 20.8972C22.8402 21.265 22.4638 21.4822 22.0395 21.4822H17.1276M20.5461 13.3326L17.1276 21.4822M23.9286 21.4037L23.7339 21.2909L23.9288 21.4032C23.9287 21.4034 23.9286 21.4036 23.9286 21.4037ZM23.9286 21.4037C23.5352 22.0856 22.8267 22.4947 22.0395 22.4947H17.1278M17.1278 22.4947L17.9488 23.3152L18.108 23.4743L17.9489 23.6334L17.5504 24.0318L17.3913 24.191L17.2322 24.0318L15.3487 22.1475L15.1898 21.9885L15.3487 21.8294L17.2322 19.9444L17.3913 19.7852L17.5504 19.9443L17.9489 20.3428L18.108 20.5019L17.9489 20.661L17.1276 21.4822M17.1278 22.4947H16.8095L17.1276 21.4822M1.95876 21.5346C1.53533 21.5346 1.15885 21.3174 0.946687 20.9503L1.95876 21.5346ZM11.058 2.37665L11.058 2.37668L11.0608 2.37186C11.273 2.00471 11.6495 1.78746 12.0729 1.78746C12.4965 1.78746 12.8736 2.00472 13.0857 2.37312L13.0864 2.3743L15.6252 6.72271L14.5154 6.42527L14.298 6.36701L14.2398 6.58443L14.0945 7.12737L14.0364 7.34466L14.2536 7.40287L16.8285 8.09267L17.0459 8.15091L17.104 7.93351L17.7931 5.35946L17.8512 5.14239L17.6342 5.08401L17.0912 4.93793L16.8737 4.8794L16.8154 5.09697L16.5113 6.232L13.9616 1.86498C13.9614 1.86478 13.9613 1.86457 13.9612 1.86437C13.5685 1.18311 12.8607 0.775 12.0729 0.775C11.287 0.775 10.5797 1.18205 10.189 1.8568L6.88208 7.26661L6.76482 7.45843L6.95655 7.57584L7.4362 7.86957L7.62824 7.98716L7.74568 7.79504L11.058 2.37665ZM13.7869 11.9368V11.7118H13.5619H10.4371H10.2121V11.9368V12.4993V12.7243H10.4371H13.5619H13.7869V12.4993V11.9368ZM13.7869 14.2804V14.0554H13.5619H10.4371H10.2121V14.2804V14.8436V15.0686H10.4371H13.5619H13.7869V14.8436V14.2804ZM13.7869 16.624V16.399H13.5619H10.4371H10.2121V16.624V17.1872V17.4122H10.4371H13.5619H13.7869V17.1872V16.624ZM15.6305 19.2488V18.9738H16.6867C16.9664 18.9738 17.1929 18.7473 17.1929 18.4676V10.6556C17.1929 10.3759 16.9664 10.1494 16.6867 10.1494H15.6305V9.87442C15.6305 9.5947 15.404 9.36819 15.1243 9.36819H8.87472C8.59499 9.36819 8.36848 9.5947 8.36848 9.87442V10.1494H7.31232C7.03259 10.1494 6.80609 10.3759 6.80609 10.6556V18.4676C6.80609 18.7473 7.03259 18.9738 7.31232 18.9738H8.36848V19.2488C8.36848 19.5285 8.59499 19.755 8.87472 19.755H15.1243C15.404 19.755 15.6305 19.5285 15.6305 19.2488ZM8.36848 11.1619V17.9614H7.81855V11.1619H8.36848ZM9.38095 10.3807H14.6181V18.7426H9.38095V10.3807ZM16.1797 17.9614H15.6305V11.1619H16.1797V17.9614Z" fill="#333333" stroke="#333333" stroke-width="0.45"/>
</g>
</g>
<defs>
<clipPath id="clip0_43_7833">
<rect width="24" height="24" fill="white"/>
</clipPath>
</defs>
</svg>
