<svg width="24" height="24" viewBox="0 0 24 24" fill="none" xmlns="http://www.w3.org/2000/svg">
<g id="&#240;&#159;&#166;&#134; icon &#34;purchase tag alt&#34;">
<path id="Vector" d="M11.6483 0.351596C11.4239 0.125998 11.1179 0 10.7999 0H4.79994C4.48194 0 4.17595 0.125998 3.95155 0.351596L0.351596 3.95155C0.125998 4.17595 0 4.48074 0 4.79994V10.7999C0 11.1191 0.125998 11.4239 0.351596 11.6483L12.3514 23.6481C12.5854 23.8821 12.8926 23.9997 13.1998 23.9997C13.507 23.9997 13.8142 23.8821 14.0482 23.6481L23.6481 14.0482C24.1173 13.579 24.1173 12.8206 23.6481 12.3514L11.6483 0.351596ZM13.1998 21.1029L2.39997 10.3031V5.29673L5.29673 2.39997H10.3031L21.1029 13.1998L13.1998 21.1029Z" fill="#333333"/>
<path id="Vector_2" d="M7.62335 9.60119C8.71487 9.60119 9.59972 8.71633 9.59972 7.62481C9.59972 6.53329 8.71487 5.64844 7.62335 5.64844C6.53183 5.64844 5.64697 6.53329 5.64697 7.62481C5.64697 8.71633 6.53183 9.60119 7.62335 9.60119Z" fill="#333333"/>
</g>
</svg>
