<svg width="24" height="24" viewBox="0 0 24 24" fill="none" xmlns="http://www.w3.org/2000/svg">
<g id="Frame 7">
<g id="&#240;&#159;&#166;&#134; icon &#34;location pin&#34;">
<path id="Vector" d="M12.5201 5.64258C11.8708 5.64258 11.2361 5.83511 10.6963 6.19582C10.1564 6.55653 9.73565 7.06923 9.48719 7.66907C9.23873 8.26892 9.17372 8.92897 9.30038 9.56576C9.42705 10.2025 9.7397 10.7875 10.1988 11.2466C10.6579 11.7057 11.2428 12.0183 11.8796 12.145C12.5164 12.2717 13.1765 12.2066 13.7763 11.9582C14.3761 11.7097 14.8888 11.289 15.2496 10.7491C15.6103 10.2093 15.8028 9.57459 15.8028 8.92532C15.8018 8.05499 15.4556 7.22059 14.8402 6.60517C14.2248 5.98975 13.3904 5.64357 12.5201 5.64258ZM12.5201 10.5667C12.1954 10.5667 11.8781 10.4704 11.6082 10.2901C11.3382 10.1097 11.1279 9.85337 11.0036 9.55345C10.8794 9.25353 10.8469 8.9235 10.9102 8.60511C10.9736 8.28671 11.1299 7.99425 11.3594 7.7647C11.589 7.53515 11.8814 7.37882 12.1998 7.31549C12.5182 7.25216 12.8483 7.28466 13.1482 7.40889C13.4481 7.53313 13.7044 7.7435 13.8848 8.01343C14.0652 8.28335 14.1614 8.60069 14.1614 8.92532C14.1609 9.36049 13.9878 9.77769 13.6801 10.0854C13.3724 10.3931 12.9552 10.5662 12.5201 10.5667Z" fill="#333333"/>
<path id="Vector_2" d="M18.8284 2.6121C17.2687 1.05282 15.1867 0.126539 12.9842 0.0120392C10.7818 -0.10246 8.61496 0.602935 6.902 1.99208C5.18905 3.38123 4.05137 5.35565 3.70856 7.53429C3.36574 9.71292 3.84208 11.9413 5.04565 13.7894L11.2473 23.31C11.3853 23.5219 11.574 23.6959 11.7963 23.8164C12.0186 23.9369 12.2674 24 12.5203 24C12.7731 24 13.022 23.9369 13.2442 23.8164C13.4665 23.6959 13.6552 23.5219 13.7932 23.31L19.9951 13.7894C21.1119 12.075 21.6054 10.0289 21.393 7.99393C21.1806 5.95896 20.2751 4.05886 18.8284 2.6121ZM18.6199 12.8935L12.5203 22.257L6.42071 12.8935C4.55365 10.0273 4.95409 6.19157 7.37286 3.7727C8.04883 3.09672 8.85132 2.5605 9.73452 2.19466C10.6177 1.82881 11.5643 1.64052 12.5203 1.64052C13.4763 1.64052 14.4229 1.82881 15.3061 2.19466C16.1893 2.5605 16.9918 3.09672 17.6678 3.7727C20.0865 6.19157 20.4869 10.0273 18.6199 12.8935Z" fill="#333333"/>
</g>
</g>
</svg>
