<svg width="24" height="24" viewBox="0 0 24 24" fill="none" xmlns="http://www.w3.org/2000/svg">
<g id="&#240;&#159;&#166;&#134; icon &#34;messages 2&#34;">
<g id="Group">
<path id="Vector" d="M19.1901 16.9768L18.698 17.3217L18.7716 17.9181L19.2392 21.7072C19.2393 21.7074 19.2393 21.7077 19.2393 21.708C19.2609 21.8915 19.0752 21.984 18.9501 21.9082L18.9501 21.9082L18.9436 21.9043L15.1221 19.6291C15.6927 18.4643 16.0001 17.173 16.0001 15.8757C16.0001 10.8825 11.7342 6.90784 6.60029 6.90784C5.80657 6.90784 5.02295 6.99907 4.26748 7.18384C5.48729 3.63145 9.08403 1 13.4042 1C18.7737 1 23 5.04391 23 9.8878C23 12.77 21.518 15.3451 19.1901 16.9768Z" stroke="#333333" stroke-width="2"/>
<path id="Vector_2" d="M11.022 19.0189L11.0172 19.0247L11.0124 19.0304C10.0191 20.2344 8.42085 21.0308 6.59987 21.0308H6.32532L6.08925 21.171L3.39736 22.7696L3.63199 20.9207L3.70834 20.3191L3.21011 19.9733C1.84772 19.0277 1 17.5353 1 15.8749C1 14.1344 1.92754 12.5788 3.39433 11.6417L3.39435 11.6417L3.40192 11.6368C4.30626 11.0475 5.4003 10.707 6.59987 10.707C9.76022 10.707 12.1997 13.0818 12.1997 15.8749C12.1997 17.0501 11.7665 18.1437 11.022 19.0189Z" stroke="#333333" stroke-width="2"/>
</g>
</g>
</svg>
