<svg width="24" height="24" viewBox="0 0 24 24" fill="none" xmlns="http://www.w3.org/2000/svg">
<g id="Frame 14">
<g id="&#240;&#159;&#166;&#134; icon &#34;tachometer-fast&#34;">
<path id="Vector" d="M15.948 9.54798L12.612 12.884C12.4122 12.8309 12.2067 12.8026 12 12.8C11.3635 12.8 10.753 13.0528 10.3029 13.5029C9.85286 13.953 9.60001 14.5634 9.60001 15.2C9.60268 15.4066 9.63089 15.6122 9.68401 15.812L8.74801 16.748C8.63554 16.8595 8.54626 16.9922 8.48534 17.1385C8.42442 17.2847 8.39305 17.4415 8.39305 17.6C8.39305 17.7584 8.42442 17.9152 8.48534 18.0614C8.54626 18.2077 8.63554 18.3404 8.74801 18.4519C8.85956 18.5644 8.99229 18.6537 9.13852 18.7146C9.28475 18.7755 9.44159 18.8069 9.60001 18.8069C9.75842 18.8069 9.91527 18.7755 10.0615 18.7146C10.2077 18.6537 10.3404 18.5644 10.452 18.4519L11.388 17.516C11.5878 17.5691 11.7933 17.5973 12 17.6C12.6365 17.6 13.247 17.3471 13.6971 16.897C14.1471 16.4469 14.4 15.8365 14.4 15.2C14.3973 14.9933 14.3691 14.7877 14.316 14.588L17.652 11.252C17.8779 11.026 18.0049 10.7195 18.0049 10.4C18.0049 10.0804 17.8779 9.77394 17.652 9.54798C17.426 9.32201 17.1195 9.19507 16.8 9.19507C16.4804 9.19507 16.174 9.32201 15.948 9.54798ZM12 2C10.4241 2 8.86372 2.31039 7.40781 2.91344C5.95191 3.5165 4.62904 4.40041 3.51474 5.51471C1.26432 7.76514 3.67777e-05 10.8174 3.67777e-05 14C-0.00587271 16.3766 0.700502 18.7006 2.02803 20.6719C2.20626 20.9361 2.48212 21.1186 2.79493 21.1794C3.10774 21.2402 3.43187 21.1742 3.69603 20.9959C3.96018 20.8177 4.14272 20.5419 4.20348 20.229C4.26424 19.9162 4.19825 19.5921 4.02002 19.3279C3.05345 17.8826 2.49757 16.2019 2.41173 14.4652C2.3259 12.7286 2.71334 11.0012 3.53269 9.46761C4.35203 7.934 5.57252 6.6517 7.06382 5.75765C8.55512 4.8636 10.2612 4.39136 12 4.39136C13.7388 4.39136 15.4449 4.8636 16.9362 5.75765C18.4275 6.6517 19.648 7.934 20.4673 9.46761C21.2867 11.0012 21.6741 12.7286 21.5883 14.4652C21.5024 16.2019 20.9466 17.8826 19.98 19.3279C19.8915 19.4587 19.8298 19.6056 19.7982 19.7602C19.7666 19.9149 19.7658 20.0742 19.7959 20.2292C19.826 20.3841 19.8864 20.5316 19.9736 20.6632C20.0607 20.7947 20.173 20.9078 20.304 20.9959C20.5026 21.1294 20.7366 21.2005 20.976 21.1999C21.1725 21.2002 21.3662 21.1522 21.5398 21.0602C21.7135 20.9681 21.8619 20.8348 21.972 20.6719C23.2995 18.7006 24.0059 16.3766 24 14C24 10.8174 22.7357 7.76514 20.4853 5.51471C18.2348 3.26428 15.1826 2 12 2Z" fill="#333333"/>
</g>
</g>
</svg>
