<svg width="24" height="24" viewBox="0 0 24 24" fill="none" xmlns="http://www.w3.org/2000/svg">
<g id="&#240;&#159;&#166;&#134; icon &#34;cogs&#34;">
<g id="Group">
<path id="Vector" d="M18 10.5V7.5L16.2 6.9C16.05 6.45 15.9 5.85 15.6 5.4L16.5 3.6L14.25 1.65L12.6 2.4C12.15 2.1 11.7 1.95 11.1 1.8L10.5 0H7.5L6.9 1.8C6.45 1.95 5.85 2.1 5.4 2.4L3.75 1.65L1.65 3.75L2.55 5.55C2.25 6 2.1 6.45 1.95 7.05L0 7.5V10.5L1.8 11.1C1.95 11.55 2.1 12.15 2.4 12.6L1.65 14.25L3.75 16.35L5.55 15.45C6 15.75 6.45 15.9 7.05 16.05L7.5 18H10.5L11.1 16.2C11.55 16.05 12.15 15.9 12.6 15.6L14.4 16.5L16.5 14.4L15.6 12.6C15.9 12.15 16.05 11.7 16.2 11.1L18 10.5ZM4.5 9C4.5 6.45 6.45 4.5 9 4.5C11.55 4.5 13.5 6.45 13.5 9C13.5 11.55 11.55 13.5 9 13.5C6.45 13.5 4.5 11.55 4.5 9Z" fill="#333333"/>
<path id="Vector_2" d="M11.25 9C11.25 10.242 10.242 11.25 9 11.25C7.758 11.25 6.75 10.242 6.75 9C6.75 7.758 7.758 6.75 9 6.75C10.242 6.75 11.25 7.758 11.25 9Z" fill="#333333"/>
<path id="Vector_3" d="M24 4.5V3H23.1C23.1 2.7 22.95 2.4 22.8 2.25L23.4 1.65L22.35 0.6L21.75 1.2C21.45 1.05 21.3 0.9 21 0.9V0H19.5V0.9C19.2 0.9 18.9 1.05 18.75 1.2L18.15 0.6L17.1 1.65L17.7 2.25C17.55 2.55 17.4 2.7 17.4 3H16.5V4.5H17.4C17.4 4.8 17.55 5.1 17.7 5.25L17.1 5.85L18.15 6.9L18.75 6.3C19.05 6.45 19.2 6.6 19.5 6.6V7.5H21V6.6C21.3 6.6 21.6 6.45 21.75 6.3L22.35 6.9L23.4 5.85L22.8 5.25C22.95 4.95 23.1 4.8 23.1 4.5H24ZM20.25 5.25C19.35 5.25 18.75 4.65 18.75 3.75C18.75 2.85 19.35 2.25 20.25 2.25C21.15 2.25 21.75 2.85 21.75 3.75C21.75 4.65 21.15 5.25 20.25 5.25Z" fill="#333333"/>
<path id="Vector_4" d="M23.1 17.7C22.95 17.25 22.8 16.8 22.5 16.35L22.95 15.45L21.9 14.4L21.15 15C20.7 14.7 20.25 14.55 19.8 14.4L19.5 13.5H18L17.7 14.4C17.25 14.55 16.8 14.7 16.35 15L15.45 14.55L14.4 15.6L14.85 16.5C14.55 16.95 14.4 17.4 14.25 17.85L13.5 18V19.5L14.4 19.8C14.55 20.25 14.7 20.7 15 21.15L14.55 22.05L15.6 23.1L16.5 22.65C16.95 22.95 17.4 23.1 17.85 23.25L18 24H19.5L19.8 23.1C20.25 22.95 20.7 22.8 21.15 22.5L22.05 22.95L23.1 21.9L22.5 21.15C22.8 20.7 22.95 20.25 23.1 19.8L24 19.5V18L23.1 17.7ZM18.75 21C17.55 21 16.5 19.95 16.5 18.75C16.5 17.55 17.55 16.5 18.75 16.5C19.95 16.5 21 17.55 21 18.75C21 19.95 19.95 21 18.75 21Z" fill="#333333"/>
</g>
</g>
</svg>
