<svg width="25" height="24" viewBox="0 0 25 24" fill="none" xmlns="http://www.w3.org/2000/svg">
<g id="&#240;&#159;&#166;&#134; icon &#34;list bullet fill&#34;">
<g id="Vector">
<path d="M9.23096 2.76953H24.0002H9.23096ZM9.23096 12.0003H24.0002H9.23096ZM9.23096 21.2311H24.0002H9.23096Z" fill="#333333"/>
<path d="M9.23096 2.76953H24.0002M9.23096 12.0003H24.0002M9.23096 21.2311H24.0002" stroke="#333333" stroke-width="2" stroke-linecap="round"/>
</g>
<g id="Group">
<path id="Vector_2" d="M4.53846 2.76923C4.53846 3.74635 3.74635 4.53846 2.76923 4.53846C1.79211 4.53846 1 3.74635 1 2.76923C1 1.79211 1.79211 1 2.76923 1C3.74635 1 4.53846 1.79211 4.53846 2.76923Z" fill="#333333" stroke="#333333" stroke-width="2"/>
<path id="Vector_3" d="M4.53846 11.9997C4.53846 12.9768 3.74635 13.7689 2.76923 13.7689C1.79211 13.7689 1 12.9768 1 11.9997C1 11.0226 1.79211 10.2305 2.76923 10.2305C3.74635 10.2305 4.53846 11.0226 4.53846 11.9997Z" fill="#333333" stroke="#333333" stroke-width="2"/>
<path id="Vector_4" d="M4.53846 21.2302C4.53846 22.2073 3.74635 22.9994 2.76923 22.9994C1.79211 22.9994 1 22.2073 1 21.2302C1 20.253 1.79211 19.4609 2.76923 19.4609C3.74635 19.4609 4.53846 20.253 4.53846 21.2302Z" fill="#333333" stroke="#333333" stroke-width="2"/>
</g>
</g>
</svg>
