<svg width="24" height="24" viewBox="0 0 24 24" fill="none" xmlns="http://www.w3.org/2000/svg">
<path d="M12 2C12.3315 2 12.6495 2.12395 12.8839 2.34458C13.1183 2.56521 13.25 2.86445 13.25 3.17647V20.8235C13.25 21.1355 13.1183 21.4348 12.8839 21.6554C12.6495 21.8761 12.3315 22 12 22C11.6685 22 11.3505 21.8761 11.1161 21.6554C10.8817 21.4348 10.75 21.1355 10.75 20.8235V3.17647C10.75 2.86445 10.8817 2.56521 11.1161 2.34458C11.3505 2.12395 11.6685 2 12 2Z" fill="#333333"/>
<path d="M3.25 11.4102C3.58152 11.4102 3.89946 11.5341 4.13388 11.7547C4.3683 11.9754 4.5 12.2746 4.5 12.5866V20.8219C4.5 21.1339 4.3683 21.4332 4.13388 21.6538C3.89946 21.8744 3.58152 21.9984 3.25 21.9984C2.91848 21.9984 2.60054 21.8744 2.36612 21.6538C2.1317 21.4332 2 21.1339 2 20.8219V12.5866C2 12.2746 2.1317 11.9754 2.36612 11.7547C2.60054 11.5341 2.91848 11.4102 3.25 11.4102Z" fill="#333333"/>
<path d="M20.75 6.70703C21.0815 6.70703 21.3995 6.83098 21.6339 7.05161C21.8683 7.27224 22 7.57148 22 7.8835V20.8247C22 21.1367 21.8683 21.4359 21.6339 21.6566C21.3995 21.8772 21.0815 22.0011 20.75 22.0011C20.4185 22.0011 20.1005 21.8772 19.8661 21.6566C19.6317 21.4359 19.5 21.1367 19.5 20.8247V7.8835C19.5 7.57148 19.6317 7.27224 19.8661 7.05161C20.1005 6.83098 20.4185 6.70703 20.75 6.70703Z" fill="#333333"/>
</svg>
