<svg width="24" height="24" viewBox="0 0 24 24" fill="none" xmlns="http://www.w3.org/2000/svg">
<path d="M13.6313 2.16669C13.6313 1.85726 13.4982 1.56051 13.2614 1.34171C13.0245 1.12292 12.7032 1 12.3682 1C12.0332 1 11.7119 1.12292 11.475 1.34171C11.2381 1.56051 11.105 1.85726 11.105 2.16669V11.0172L9.47174 9.50865C9.23351 9.29613 8.91443 9.17853 8.58324 9.18119C8.25204 9.18385 7.93523 9.30655 7.70103 9.52286C7.46683 9.73918 7.33398 10.0318 7.3311 10.3377C7.32822 10.6436 7.45554 10.9383 7.68564 11.1583L11.4751 14.6584C11.712 14.8771 12.0332 15 12.3682 15C12.7031 15 13.0243 14.8771 13.2612 14.6584L17.0507 11.1583C17.2808 10.9383 17.4081 10.6436 17.4052 10.3377C17.4023 10.0318 17.2695 9.73918 17.0353 9.52286C16.8011 9.30655 16.4843 9.18385 16.1531 9.18119C15.8219 9.17853 15.5028 9.29613 15.2646 9.50865L13.6313 11.0172V2.16669Z" fill="#333333"/>
<path d="M3.52632 17.6847V3.78999H8.57895V1.26367H2.89474C2.39222 1.26367 1.91029 1.4633 1.55496 1.81863C1.19962 2.17396 1 2.65589 1 3.15841V22.1058C1 22.6083 1.19962 23.0902 1.55496 23.4456C1.91029 23.8009 2.39222 24.0005 2.89474 24.0005H21.8421C22.3446 24.0005 22.8266 23.8009 23.1819 23.4456C23.5372 23.0902 23.7368 22.6083 23.7368 22.1058V3.15841C23.7368 2.65589 23.5372 2.17396 23.1819 1.81863C22.8266 1.4633 22.3446 1.26367 21.8421 1.26367H16.1579V3.78999H21.2105V17.6847H16.7895C15.8105 17.6847 15.0362 18.5209 14.3566 19.2561L14.2177 19.4077C13.9814 19.6617 13.6952 19.8642 13.3769 20.0025C13.0587 20.1407 12.7154 20.2117 12.3684 20.211C12.0216 20.2114 11.6784 20.1401 11.3604 20.0016C11.0424 19.8632 10.7565 19.6605 10.5204 19.4064L10.3802 19.2548C9.70063 18.5235 8.92632 17.6847 7.94737 17.6847H3.52632Z" fill="#333333"/>
</svg>
