<svg width="24" height="14" viewBox="0 0 24 14" fill="none" xmlns="http://www.w3.org/2000/svg">
<g id="Frame 10">
<g id="&#240;&#159;&#166;&#134; icon &#34;Users&#34;">
<path id="Vector" d="M21.1417 15.7996C20.8489 14.728 20.29 13.7713 19.5398 12.9996H21.6C22.3715 12.9996 23 13.6281 23 14.3996V15.5996C23 15.7111 22.9115 15.7996 22.8 15.7996H21.1417ZM4.46007 12.9996C3.7095 13.7715 3.15022 14.7282 2.85591 15.7996H1.2C1.08853 15.7996 1 15.7111 1 15.5996V14.3996C1 13.6281 1.62853 12.9996 2.4 12.9996H4.46007ZM5 8.39961C5 9.17107 4.37147 9.79961 3.6 9.79961C2.82853 9.79961 2.2 9.17107 2.2 8.39961C2.2 7.62814 2.82853 6.99961 3.6 6.99961C4.37147 6.99961 5 7.62814 5 8.39961ZM21.8 8.39961C21.8 9.17107 21.1715 9.79961 20.4 9.79961C19.6285 9.79961 19 9.17107 19 8.39961C19 7.62814 19.6285 6.99961 20.4 6.99961C21.1715 6.99961 21.8 7.62814 21.8 8.39961ZM15.2 7.79961C15.2 9.56857 13.769 10.9996 12 10.9996C10.231 10.9996 8.8 9.56857 8.8 7.79961C8.8 6.03064 10.231 4.59961 12 4.59961C13.769 4.59961 15.2 6.03064 15.2 7.79961ZM12 14.7996C13.0027 14.7996 13.9421 14.5739 14.7881 14.1996H14.88C16.7127 14.1996 18.2 15.6869 18.2 17.5196V18.5996C18.2 19.0411 17.8415 19.3996 17.4 19.3996H6.6C6.15854 19.3996 5.8 19.0411 5.8 18.5996V17.5196C5.8 15.6869 7.28729 14.1996 9.12 14.1996H9.21268C10.0598 14.5733 10.996 14.7996 12 14.7996Z" stroke="#333333" stroke-width="2"/>
</g>
</g>
</svg>
