<svg width="24" height="24" viewBox="0 0 24 24" fill="none" xmlns="http://www.w3.org/2000/svg">
<g id="&#240;&#159;&#166;&#134; icon &#34;orders minor&#34;">
<path id="Vector" d="M1.26 4.29771C1.46011 3.09658 2.07991 2.00542 3.00911 1.21843C3.9383 0.43144 5.1166 -0.00031861 6.33429 1.76404e-07H17.6657C18.8834 -0.00031861 20.0617 0.43144 20.9909 1.21843C21.9201 2.00542 22.5399 3.09658 22.74 4.29771L24 12V20.5714C24 21.4807 23.6388 22.3528 22.9958 22.9958C22.3528 23.6388 21.4807 24 20.5714 24H3.42857C2.51926 24 1.64719 23.6388 1.00421 22.9958C0.361223 22.3528 0 21.4807 0 20.5714V12L1.26 4.29771ZM6.33429 3.42857C5.92821 3.42835 5.53524 3.57229 5.22538 3.83475C4.91552 4.0972 4.70888 4.46114 4.64229 4.86171L3.42857 12V13.7143H5.81829C6.83417 13.7141 7.82736 14.0147 8.67257 14.5783L10.0989 15.5297C10.6619 15.9049 11.3234 16.1051 12 16.1051C12.6766 16.1051 13.3381 15.9049 13.9011 15.5297L15.3274 14.5783C16.1731 14.0144 17.167 13.7137 18.1834 13.7143H20.5714V12L19.3577 4.86171C19.2912 4.46143 19.0848 4.09772 18.7753 3.8353C18.4658 3.57288 18.0732 3.42876 17.6674 3.42857H6.33257H6.33429Z" fill="#333333"/>
</g>
</svg>
